<?xml version="1.0" encoding="UTF-8"?>
<svg xmlns="http://www.w3.org/2000/svg" xmlns:xlink="http://www.w3.org/1999/xlink" width="20px" height="20px" viewBox="0 0 20 20" version="1.1">
<g id="surface1">
<path style=" stroke:none;fill-rule:nonzero;fill:rgb(100%,100%,100%);fill-opacity:1;" d="M 4.667969 2.667969 C 4.496094 2.667969 4.324219 2.730469 4.195312 2.863281 L 2.863281 4.195312 C 2.601562 4.457031 2.601562 4.878906 2.863281 5.136719 L 7.722656 10 L 2.863281 14.863281 C 2.601562 15.121094 2.601562 15.542969 2.863281 15.804688 L 4.195312 17.136719 C 4.457031 17.398438 4.878906 17.398438 5.136719 17.136719 L 10 12.277344 L 14.863281 17.136719 C 15.121094 17.398438 15.542969 17.398438 15.804688 17.136719 L 17.136719 15.804688 C 17.398438 15.542969 17.398438 15.121094 17.136719 14.863281 L 12.277344 10 L 17.136719 5.136719 C 17.398438 4.878906 17.398438 4.457031 17.136719 4.195312 L 15.804688 2.863281 C 15.542969 2.601562 15.121094 2.601562 14.863281 2.863281 L 10 7.722656 L 5.136719 2.863281 C 5.007812 2.730469 4.835938 2.667969 4.667969 2.667969 Z M 4.667969 2.667969 "/>
</g>
</svg>
