<?xml version="1.0" encoding="UTF-8"?>
<svg xmlns="http://www.w3.org/2000/svg" xmlns:xlink="http://www.w3.org/1999/xlink" width="20px" height="20px" viewBox="0 0 20 20" version="1.1">
<g id="surface1">
<path style=" stroke:none;fill-rule:nonzero;fill:rgb(72.941176%,72.54902%,72.156863%);fill-opacity:1;" d="M 16.667969 0.832031 C 18.15625 1.878906 18.660156 2.519531 19.0625 4.296875 C 18.625 6.457031 17.464844 7.726562 15.832031 9.167969 C 14.277344 10.121094 13.054688 10 11.25 10 C 10.976562 10.273438 10.699219 10.550781 10.417969 10.832031 C 10.433594 11.28125 10.449219 11.726562 10.46875 12.1875 C 10.390625 14.542969 9.230469 15.871094 7.578125 17.449219 C 5.972656 18.515625 5.222656 18.675781 3.332031 18.332031 C 1.84375 17.285156 1.339844 16.648438 0.9375 14.871094 C 1.375 12.710938 2.535156 11.441406 4.167969 10 C 5.722656 9.046875 6.945312 9.167969 8.75 9.167969 C 9.023438 8.890625 9.300781 8.617188 9.582031 8.332031 C 9.566406 7.886719 9.550781 7.441406 9.53125 6.980469 C 9.609375 4.625 10.769531 3.292969 12.421875 1.71875 C 14.027344 0.648438 14.777344 0.488281 16.667969 0.832031 Z M 13.875 3.554688 C 13.554688 3.960938 13.554688 3.960938 13.230469 4.375 C 13.011719 4.644531 12.796875 4.917969 12.570312 5.195312 C 12.410156 5.40625 12.25 5.617188 12.082031 5.832031 C 12.496094 5.972656 12.910156 6.109375 13.332031 6.25 C 13.746094 6.867188 13.746094 6.867188 14.167969 7.5 C 15.082031 6.726562 15.9375 5.957031 16.667969 5 C 16.683594 3.828125 16.683594 3.828125 16.25 2.917969 C 14.628906 2.730469 14.628906 2.730469 13.875 3.554688 Z M 5.832031 11.667969 C 4.917969 12.441406 4.0625 13.210938 3.332031 14.167969 C 3.316406 15.339844 3.316406 15.339844 3.75 16.25 C 4.878906 16.183594 5.609375 16.050781 6.4375 15.25 C 6.949219 14.625 7.433594 13.980469 7.917969 13.332031 C 7.503906 13.195312 7.089844 13.058594 6.667969 12.917969 C 6.390625 12.503906 6.117188 12.089844 5.832031 11.667969 Z M 5.832031 11.667969 "/>
<path style=" stroke:none;fill-rule:nonzero;fill:rgb(50.980392%,50.588235%,50.588235%);fill-opacity:1;" d="M 18.332031 2.917969 C 18.472656 2.917969 18.609375 2.917969 18.75 2.917969 C 18.980469 4.507812 19.050781 5.371094 18.160156 6.738281 C 16.960938 8.140625 15.914062 9.324219 14.167969 10 C 13.195312 10 12.222656 10 11.25 10 C 10.976562 10.273438 10.699219 10.550781 10.417969 10.832031 C 10.433594 11.28125 10.449219 11.726562 10.46875 12.1875 C 10.390625 14.542969 9.230469 15.871094 7.578125 17.449219 C 5.972656 18.515625 5.222656 18.675781 3.332031 18.332031 C 2.109375 17.449219 2.109375 17.449219 1.25 16.25 C 1.121094 14.871094 1.121094 14.871094 1.25 13.75 C 1.386719 13.75 1.523438 13.75 1.667969 13.75 C 1.777344 14.214844 1.890625 14.679688 2.003906 15.15625 C 2.359375 16.757812 2.359375 16.757812 3.75 17.5 C 5.449219 17.464844 6.109375 17.207031 7.394531 16.066406 C 7.707031 15.714844 8.015625 15.363281 8.332031 15 C 8.609375 14.726562 8.882812 14.449219 9.167969 14.167969 C 9.433594 13.304688 9.433594 13.304688 9.582031 12.5 C 8.324219 13.191406 8.324219 13.191406 7.941406 14.113281 C 7.378906 15.238281 6.828125 15.894531 5.832031 16.667969 C 4.53125 16.824219 4.53125 16.824219 3.332031 16.667969 C 2.5 15.832031 2.5 15.832031 2.316406 14.84375 C 2.5 13.75 2.5 13.75 3.488281 12.863281 C 3.851562 12.605469 4.210938 12.347656 4.582031 12.082031 C 4.859375 11.671875 5.132812 11.257812 5.417969 10.832031 C 6.511719 10.753906 6.511719 10.753906 7.5 10.832031 C 7.363281 11.382812 7.226562 11.933594 7.082031 12.5 C 7.300781 12.308594 7.515625 12.117188 7.738281 11.921875 C 8.03125 11.664062 8.320312 11.410156 8.621094 11.144531 C 8.921875 10.878906 9.226562 10.613281 9.539062 10.335938 C 10.214844 9.753906 10.921875 9.207031 11.640625 8.671875 C 12.5625 7.863281 12.789062 7.453125 12.917969 6.25 C 12.640625 6.113281 12.367188 5.976562 12.082031 5.832031 C 12.890625 5.988281 12.890625 5.988281 13.75 6.25 C 13.886719 6.523438 14.023438 6.800781 14.167969 7.082031 C 14.992188 6.394531 15.816406 5.707031 16.667969 5 C 16.066406 6.402344 15.332031 7.34375 14.167969 8.332031 C 13.753906 8.332031 13.339844 8.332031 12.917969 8.332031 C 12.917969 8.609375 12.917969 8.882812 12.917969 9.167969 C 15.171875 8.253906 16.582031 7 17.917969 5 C 18.308594 3.851562 18.308594 3.851562 18.332031 2.917969 Z M 5.832031 11.667969 C 4.917969 12.441406 4.0625 13.210938 3.332031 14.167969 C 3.316406 15.339844 3.316406 15.339844 3.75 16.25 C 4.878906 16.183594 5.609375 16.050781 6.4375 15.25 C 6.949219 14.625 7.433594 13.980469 7.917969 13.332031 C 7.503906 13.195312 7.089844 13.058594 6.667969 12.917969 C 6.390625 12.503906 6.117188 12.089844 5.832031 11.667969 Z M 5.832031 11.667969 "/>
<path style=" stroke:none;fill-rule:nonzero;fill:rgb(52.941176%,52.941176%,52.54902%);fill-opacity:1;" d="M 18.332031 2.917969 C 18.472656 2.917969 18.609375 2.917969 18.75 2.917969 C 18.980469 4.507812 19.050781 5.371094 18.160156 6.738281 C 16.960938 8.136719 15.914062 9.328125 14.167969 10 C 13.675781 9.992188 13.1875 9.984375 12.683594 9.972656 C 11.269531 9.855469 11.269531 9.855469 10.441406 10.625 C 10.296875 10.832031 10.152344 11.039062 10 11.25 C 9.726562 11.113281 9.449219 10.976562 9.167969 10.832031 C 9.402344 10.640625 9.636719 10.449219 9.882812 10.253906 C 10.339844 9.871094 10.339844 9.871094 10.808594 9.480469 C 11.113281 9.226562 11.417969 8.976562 11.730469 8.71875 C 12.542969 7.871094 12.757812 7.394531 12.917969 6.25 C 12.640625 6.113281 12.367188 5.976562 12.082031 5.832031 C 12.890625 5.988281 12.890625 5.988281 13.75 6.25 C 13.886719 6.523438 14.023438 6.800781 14.167969 7.082031 C 14.992188 6.394531 15.816406 5.707031 16.667969 5 C 16.066406 6.402344 15.332031 7.34375 14.167969 8.332031 C 13.753906 8.332031 13.339844 8.332031 12.917969 8.332031 C 12.917969 8.609375 12.917969 8.882812 12.917969 9.167969 C 15.171875 8.253906 16.582031 7 17.917969 5 C 18.308594 3.851562 18.308594 3.851562 18.332031 2.917969 Z M 18.332031 2.917969 "/>
<path style=" stroke:none;fill-rule:nonzero;fill:rgb(60.784314%,60.784314%,60.392157%);fill-opacity:1;" d="M 5.417969 10.832031 C 6.511719 10.753906 6.511719 10.753906 7.5 10.832031 C 7.363281 11.382812 7.226562 11.933594 7.082031 12.5 C 6.535156 12.5 5.984375 12.5 5.417969 12.5 C 4.445312 13.195312 4.445312 13.195312 3.75 14.167969 C 3.75 14.714844 3.75 15.265625 3.75 15.832031 C 5.851562 15.648438 6.824219 14.703125 8.332031 13.332031 C 7.730469 14.742188 7.050781 15.722656 5.832031 16.667969 C 4.53125 16.824219 4.53125 16.824219 3.332031 16.667969 C 2.5 15.832031 2.5 15.832031 2.316406 14.84375 C 2.5 13.75 2.5 13.75 3.488281 12.863281 C 3.851562 12.605469 4.210938 12.347656 4.582031 12.082031 C 4.859375 11.671875 5.132812 11.257812 5.417969 10.832031 Z M 5.417969 10.832031 "/>
<path style=" stroke:none;fill-rule:nonzero;fill:rgb(86.666667%,86.27451%,86.27451%);fill-opacity:1;" d="M 11.667969 6.25 C 12.078125 6.25 12.492188 6.25 12.917969 6.25 C 12.738281 8.257812 11.964844 9.019531 10.46875 10.3125 C 10.101562 10.636719 9.730469 10.960938 9.351562 11.296875 C 8.332031 12.082031 8.332031 12.082031 7.082031 12.5 C 7.136719 11.796875 7.136719 11.796875 7.5 10.832031 C 8.109375 10.320312 8.71875 9.808594 9.351562 9.320312 C 10.128906 8.6875 10.128906 8.6875 10.910156 7.371094 C 11.160156 7 11.410156 6.628906 11.667969 6.25 Z M 11.667969 6.25 "/>
<path style=" stroke:none;fill-rule:nonzero;fill:rgb(64.705882%,64.313725%,63.921569%);fill-opacity:1;" d="M 16.25 2.5 C 15.914062 2.628906 15.914062 2.628906 15.574219 2.761719 C 13.414062 4.011719 12.082031 5.792969 10.832031 7.917969 C 10.558594 7.917969 10.285156 7.917969 10 7.917969 C 9.738281 6.71875 9.738281 6.71875 9.582031 5.417969 C 9.859375 5.140625 10.132812 4.867188 10.417969 4.582031 C 10.554688 4.859375 10.691406 5.132812 10.832031 5.417969 C 11.050781 5.207031 11.265625 4.996094 11.488281 4.777344 C 11.78125 4.507812 12.070312 4.238281 12.371094 3.957031 C 12.796875 3.550781 12.796875 3.550781 13.234375 3.136719 C 14.335938 2.382812 14.941406 2.371094 16.25 2.5 Z M 16.25 2.5 "/>
<path style=" stroke:none;fill-rule:nonzero;fill:rgb(69.803922%,69.803922%,69.411765%);fill-opacity:1;" d="M 17.917969 2.082031 C 18.054688 2.082031 18.191406 2.082031 18.332031 2.082031 C 18.484375 4.730469 18.484375 4.730469 17.761719 6.015625 C 17.082031 6.667969 17.082031 6.667969 16.25 6.667969 C 16.136719 6.925781 16.027344 7.183594 15.910156 7.449219 C 15.417969 8.332031 15.417969 8.332031 14.167969 9.167969 C 13.753906 9.167969 13.339844 9.167969 12.917969 9.167969 C 12.917969 8.890625 12.917969 8.617188 12.917969 8.332031 C 13.605469 7.90625 14.300781 7.492188 15 7.082031 C 16.238281 6.109375 16.457031 5.296875 16.667969 3.75 C 16.941406 4.023438 17.214844 4.300781 17.5 4.582031 C 17.636719 3.757812 17.773438 2.933594 17.917969 2.082031 Z M 17.917969 2.082031 "/>
<path style=" stroke:none;fill-rule:nonzero;fill:rgb(50.588235%,50.588235%,50.196078%);fill-opacity:1;" d="M 18.332031 2.917969 C 18.472656 2.917969 18.609375 2.917969 18.75 2.917969 C 18.980469 4.488281 19.027344 5.371094 18.203125 6.753906 C 17.03125 8.203125 16.097656 9.3125 14.191406 9.582031 C 13.773438 9.582031 13.351562 9.582031 12.917969 9.582031 C 13.328125 9.308594 13.742188 9.035156 14.167969 8.75 C 16.457031 7.03125 17.863281 5.800781 18.332031 2.917969 Z M 18.332031 2.917969 "/>
<path style=" stroke:none;fill-rule:nonzero;fill:rgb(80.392157%,80.392157%,80.392157%);fill-opacity:1;" d="M 7.5 10 C 7.269531 10.09375 7.035156 10.1875 6.796875 10.285156 C 5.566406 10.984375 4.738281 11.90625 3.75 12.917969 C 3.0625 13.480469 2.371094 14.039062 1.667969 14.582031 C 2.355469 11.984375 4.636719 9.480469 7.5 10 Z M 7.5 10 "/>
<path style=" stroke:none;fill-rule:nonzero;fill:rgb(80%,80%,80%);fill-opacity:1;" d="M 13.332031 1.667969 C 13.746094 1.804688 14.160156 1.941406 14.582031 2.082031 C 12.5 4.167969 12.5 4.167969 11.796875 4.816406 C 11.160156 5.515625 10.800781 6.226562 10.417969 7.082031 C 10.234375 6.015625 10.234375 6.015625 10.417969 4.582031 C 11.285156 3.492188 12.277344 2.578125 13.332031 1.667969 Z M 13.332031 1.667969 "/>
<path style=" stroke:none;fill-rule:nonzero;fill:rgb(72.941176%,72.941176%,72.941176%);fill-opacity:1;" d="M 15.417969 6.667969 C 15.554688 7.078125 15.691406 7.492188 15.832031 7.917969 C 14.324219 9.167969 14.324219 9.167969 12.917969 9.167969 C 12.917969 8.890625 12.917969 8.617188 12.917969 8.332031 C 13.597656 7.894531 14.292969 7.480469 15 7.082031 C 15.136719 6.945312 15.273438 6.808594 15.417969 6.667969 Z M 15.417969 6.667969 "/>
</g>
</svg>
