<?xml version="1.0" encoding="UTF-8"?>
<svg xmlns="http://www.w3.org/2000/svg" xmlns:xlink="http://www.w3.org/1999/xlink" width="20px" height="20px" viewBox="0 0 20 20" version="1.1">
<g id="surface1">
<path style=" stroke:none;fill-rule:nonzero;fill:rgb(100%,100%,100%);fill-opacity:1;" d="M 3.125 12.5 C 3.539062 12.5 3.949219 12.5 4.375 12.5 C 4.375 13.53125 4.375 14.5625 4.375 15.625 C 8.085938 15.625 11.800781 15.625 15.625 15.625 C 15.625 14.59375 15.625 13.5625 15.625 12.5 C 16.039062 12.5 16.449219 12.5 16.875 12.5 C 16.875 13.945312 16.875 15.386719 16.875 16.875 C 12.335938 16.875 7.800781 16.875 3.125 16.875 C 3.125 15.429688 3.125 13.988281 3.125 12.5 Z M 3.125 12.5 "/>
<path style=" stroke:none;fill-rule:nonzero;fill:rgb(100%,100%,100%);fill-opacity:1;" d="M 9.375 3.125 C 9.789062 3.125 10.199219 3.125 10.625 3.125 C 10.726562 5.1875 10.832031 7.25 10.9375 9.375 C 11.144531 9.167969 11.351562 8.960938 11.5625 8.75 C 11.976562 8.75 12.386719 8.75 12.8125 8.75 C 12.730469 10.171875 12.140625 10.910156 11.128906 11.839844 C 10.625 12.1875 10.625 12.1875 9.84375 12.265625 C 8.761719 11.722656 7.875 11.007812 7.1875 10 C 7.1875 9.585938 7.1875 9.175781 7.1875 8.75 C 8.710938 9.023438 8.710938 9.023438 9.0625 9.375 C 9.164062 7.3125 9.269531 5.25 9.375 3.125 Z M 9.375 3.125 "/>
</g>
</svg>
