<?xml version="1.0" encoding="UTF-8"?>
<svg xmlns="http://www.w3.org/2000/svg" xmlns:xlink="http://www.w3.org/1999/xlink" width="20px" height="20px" viewBox="0 0 20 20" version="1.1">
<g id="surface1">
<path style=" stroke:none;fill-rule:nonzero;fill:rgb(100%,100%,100%);fill-opacity:1;" d="M 11.28125 11.28125 C 12.972656 11.28125 14.667969 11.28125 16.410156 11.28125 C 16.496094 11.621094 16.578125 11.957031 16.667969 12.308594 C 16.152344 12.820312 16.152344 12.820312 15.375 12.871094 C 15.070312 12.863281 14.769531 12.859375 14.457031 12.851562 C 14.148438 12.847656 13.84375 12.84375 13.53125 12.839844 C 13.296875 12.832031 13.0625 12.828125 12.820312 12.820312 C 12.828125 13.054688 12.832031 13.289062 12.839844 13.53125 C 12.84375 13.835938 12.847656 14.140625 12.851562 14.457031 C 12.859375 14.757812 12.863281 15.0625 12.871094 15.375 C 12.820312 16.152344 12.820312 16.152344 12.308594 16.667969 C 11.96875 16.582031 11.628906 16.496094 11.28125 16.410156 C 11.28125 14.71875 11.28125 13.027344 11.28125 11.28125 Z M 11.28125 11.28125 "/>
<path style=" stroke:none;fill-rule:nonzero;fill:rgb(100%,100%,100%);fill-opacity:1;" d="M 3.589844 11.28125 C 5.28125 11.28125 6.972656 11.28125 8.71875 11.28125 C 8.71875 12.972656 8.71875 14.667969 8.71875 16.410156 C 8.378906 16.496094 8.042969 16.578125 7.691406 16.667969 C 7.179688 16.152344 7.179688 16.152344 7.128906 15.375 C 7.136719 15.070312 7.140625 14.769531 7.148438 14.457031 C 7.152344 14.148438 7.15625 13.84375 7.160156 13.53125 C 7.167969 13.296875 7.171875 13.0625 7.179688 12.820312 C 6.945312 12.828125 6.710938 12.832031 6.46875 12.839844 C 6.011719 12.84375 6.011719 12.84375 5.542969 12.851562 C 5.089844 12.863281 5.089844 12.863281 4.625 12.871094 C 3.847656 12.820312 3.847656 12.820312 3.332031 12.308594 C 3.417969 11.96875 3.503906 11.628906 3.589844 11.28125 Z M 3.589844 11.28125 "/>
<path style=" stroke:none;fill-rule:nonzero;fill:rgb(100%,100%,100%);fill-opacity:1;" d="M 11.539062 3.332031 C 12.484375 3.511719 12.484375 3.511719 12.820312 3.847656 C 12.839844 4.40625 12.84375 4.96875 12.835938 5.527344 C 12.835938 5.835938 12.832031 6.144531 12.828125 6.460938 C 12.828125 6.695312 12.824219 6.933594 12.820312 7.179688 C 13.171875 7.171875 13.171875 7.171875 13.53125 7.160156 C 13.835938 7.15625 14.140625 7.152344 14.457031 7.148438 C 14.757812 7.140625 15.0625 7.136719 15.375 7.128906 C 16.152344 7.179688 16.152344 7.179688 16.667969 7.691406 C 16.582031 8.03125 16.496094 8.371094 16.410156 8.71875 C 14.71875 8.71875 13.027344 8.71875 11.28125 8.71875 C 11.277344 7.878906 11.269531 7.035156 11.265625 6.167969 C 11.265625 5.90625 11.261719 5.640625 11.257812 5.367188 C 11.257812 5.054688 11.257812 5.054688 11.257812 4.738281 C 11.253906 4.523438 11.253906 4.308594 11.253906 4.089844 C 11.28125 3.589844 11.28125 3.589844 11.539062 3.332031 Z M 11.539062 3.332031 "/>
<path style=" stroke:none;fill-rule:nonzero;fill:rgb(100%,100%,100%);fill-opacity:1;" d="M 7.691406 3.332031 C 8.03125 3.417969 8.371094 3.503906 8.71875 3.589844 C 8.71875 5.28125 8.71875 6.972656 8.71875 8.71875 C 7.027344 8.71875 5.332031 8.71875 3.589844 8.71875 C 3.503906 8.378906 3.421875 8.042969 3.332031 7.691406 C 3.847656 7.179688 3.847656 7.179688 4.625 7.128906 C 5.082031 7.136719 5.082031 7.136719 5.542969 7.148438 C 6.003906 7.15625 6.003906 7.15625 6.46875 7.160156 C 6.703125 7.167969 6.9375 7.171875 7.179688 7.179688 C 7.171875 6.945312 7.167969 6.710938 7.160156 6.46875 C 7.15625 6.164062 7.152344 5.859375 7.148438 5.542969 C 7.140625 5.242188 7.136719 4.9375 7.128906 4.625 C 7.179688 3.847656 7.179688 3.847656 7.691406 3.332031 Z M 7.691406 3.332031 "/>
</g>
</svg>
