<?xml version="1.0" encoding="UTF-8"?>
<svg xmlns="http://www.w3.org/2000/svg" xmlns:xlink="http://www.w3.org/1999/xlink" width="20px" height="20px" viewBox="0 0 20 20" version="1.1">
<g id="surface1">
<path style=" stroke:none;fill-rule:nonzero;fill:rgb(1.176471%,60.784314%,89.803922%);fill-opacity:1;" d="M 10 2.082031 C 5.628906 2.082031 2.082031 5.628906 2.082031 10 C 2.082031 14.371094 5.628906 17.917969 10 17.917969 C 14.371094 17.917969 17.917969 14.371094 17.917969 10 C 17.917969 5.628906 14.371094 2.082031 10 2.082031 Z M 10 2.082031 "/>
<path style=" stroke:none;fill-rule:nonzero;fill:rgb(100%,100%,100%);fill-opacity:1;" d="M 11.070312 12.097656 L 13.121094 12.097656 L 13.441406 10.015625 L 11.070312 10.015625 L 11.070312 8.878906 C 11.070312 8.015625 11.355469 7.25 12.164062 7.25 L 13.460938 7.25 L 13.460938 5.433594 C 13.234375 5.402344 12.75 5.332031 11.839844 5.332031 C 9.933594 5.332031 8.816406 6.339844 8.816406 8.632812 L 8.816406 10.015625 L 6.855469 10.015625 L 6.855469 12.097656 L 8.816406 12.097656 L 8.816406 17.820312 C 9.203125 17.878906 9.597656 17.917969 10 17.917969 C 10.363281 17.917969 10.71875 17.882812 11.070312 17.835938 Z M 11.070312 12.097656 "/>
</g>
</svg>
