<?xml version="1.0" encoding="UTF-8"?>
<svg xmlns="http://www.w3.org/2000/svg" xmlns:xlink="http://www.w3.org/1999/xlink" width="20px" height="20px" viewBox="0 0 20 20" version="1.1">
<g id="surface1">
<path style=" stroke:none;fill-rule:nonzero;fill:rgb(100%,100%,100%);fill-opacity:1;" d="M 16.800781 12.800781 C 17.0625 12.800781 17.328125 12.800781 17.601562 12.800781 C 17.601562 14.515625 17.601562 16.230469 17.601562 18 C 15.882812 18 14.167969 18 12.398438 18 C 12.398438 17.734375 12.398438 17.472656 12.398438 17.199219 C 13.851562 17.199219 15.304688 17.199219 16.800781 17.199219 C 16.800781 15.746094 16.800781 14.296875 16.800781 12.800781 Z M 16.800781 12.800781 "/>
<path style=" stroke:none;fill-rule:nonzero;fill:rgb(100%,100%,100%);fill-opacity:1;" d="M 2.398438 12.800781 C 2.664062 12.800781 2.929688 12.800781 3.199219 12.800781 C 3.199219 14.253906 3.199219 15.703125 3.199219 17.199219 C 4.652344 17.199219 6.105469 17.199219 7.601562 17.199219 C 7.601562 17.464844 7.601562 17.726562 7.601562 18 C 5.882812 18 4.167969 18 2.398438 18 C 2.398438 16.285156 2.398438 14.566406 2.398438 12.800781 Z M 2.398438 12.800781 "/>
<path style=" stroke:none;fill-rule:nonzero;fill:rgb(100%,100%,100%);fill-opacity:1;" d="M 12.398438 2.398438 C 14.117188 2.398438 15.832031 2.398438 17.601562 2.398438 C 17.601562 4.117188 17.601562 5.832031 17.601562 7.601562 C 17.335938 7.601562 17.070312 7.601562 16.800781 7.601562 C 16.800781 6.148438 16.800781 4.695312 16.800781 3.199219 C 15.347656 3.199219 13.894531 3.199219 12.398438 3.199219 C 12.398438 2.9375 12.398438 2.671875 12.398438 2.398438 Z M 12.398438 2.398438 "/>
<path style=" stroke:none;fill-rule:nonzero;fill:rgb(100%,100%,100%);fill-opacity:1;" d="M 2.398438 2.398438 C 4.117188 2.398438 5.832031 2.398438 7.601562 2.398438 C 7.601562 2.664062 7.601562 2.929688 7.601562 3.199219 C 6.148438 3.199219 4.695312 3.199219 3.199219 3.199219 C 3.199219 4.652344 3.199219 6.105469 3.199219 7.601562 C 2.9375 7.601562 2.671875 7.601562 2.398438 7.601562 C 2.398438 5.882812 2.398438 4.167969 2.398438 2.398438 Z M 2.398438 2.398438 "/>
</g>
</svg>
