<?xml version="1.0" encoding="UTF-8"?>
<svg xmlns="http://www.w3.org/2000/svg" xmlns:xlink="http://www.w3.org/1999/xlink" width="20px" height="20px" viewBox="0 0 20 20" version="1.1">
<g id="surface1">
<path style=" stroke:none;fill-rule:nonzero;fill:rgb(11.764706%,53.333333%,89.803922%);fill-opacity:1;" d="M 14.167969 17.5 L 5.832031 17.5 C 3.996094 17.5 2.5 16.003906 2.5 14.167969 L 2.5 5.832031 C 2.5 3.996094 3.996094 2.5 5.832031 2.5 L 14.167969 2.5 C 16.003906 2.5 17.5 3.996094 17.5 5.832031 L 17.5 14.167969 C 17.5 16.003906 16.003906 17.5 14.167969 17.5 Z M 14.167969 17.5 "/>
<path style=" stroke:none;fill-rule:nonzero;fill:rgb(100%,100%,100%);fill-opacity:1;" d="M 14.96875 7.285156 L 12.253906 10 L 14.96875 12.714844 C 14.988281 12.644531 15 12.574219 15 12.5 L 15 7.5 C 15 7.425781 14.988281 7.355469 14.96875 7.285156 Z M 11.121094 9.957031 L 14.378906 6.699219 C 14.3125 6.679688 14.242188 6.667969 14.167969 6.667969 L 5.832031 6.667969 C 5.757812 6.667969 5.6875 6.679688 5.621094 6.699219 L 8.878906 9.957031 C 9.496094 10.574219 10.503906 10.574219 11.121094 9.957031 Z M 10 11.253906 C 9.398438 11.253906 8.804688 11.027344 8.335938 10.585938 L 5.621094 13.300781 C 5.6875 13.320312 5.757812 13.332031 5.832031 13.332031 L 14.167969 13.332031 C 14.242188 13.332031 14.3125 13.320312 14.378906 13.300781 L 11.664062 10.585938 C 11.195312 11.027344 10.601562 11.253906 10 11.253906 Z M 5.03125 7.285156 C 5.011719 7.355469 5 7.425781 5 7.5 L 5 12.5 C 5 12.574219 5.011719 12.644531 5.03125 12.714844 L 7.746094 10 Z M 5.03125 7.285156 "/>
</g>
</svg>
