<?xml version="1.0" encoding="UTF-8"?>
<svg xmlns="http://www.w3.org/2000/svg" xmlns:xlink="http://www.w3.org/1999/xlink" width="20px" height="20px" viewBox="0 0 20 20" version="1.1">
<g id="surface1">
<path style=" stroke:none;fill-rule:nonzero;fill:rgb(100%,100%,100%);fill-opacity:1;" d="M 15 1.667969 C 13.621094 1.667969 12.5 2.785156 12.5 4.167969 C 12.5 4.324219 12.515625 4.480469 12.546875 4.632812 L 6.617188 8.09375 C 6.164062 7.710938 5.59375 7.5 5 7.5 C 3.621094 7.5 2.5 8.621094 2.5 10 C 2.5 11.378906 3.621094 12.5 5 12.5 C 5.589844 12.5 6.164062 12.289062 6.613281 11.90625 L 12.546875 15.367188 C 12.515625 15.519531 12.5 15.675781 12.5 15.832031 C 12.5 17.214844 13.621094 18.332031 15 18.332031 C 16.378906 18.332031 17.5 17.214844 17.5 15.832031 C 17.5 14.453125 16.378906 13.332031 15 13.332031 C 14.410156 13.335938 13.835938 13.542969 13.386719 13.925781 L 7.453125 10.46875 C 7.484375 10.3125 7.5 10.15625 7.5 10 C 7.5 9.84375 7.484375 9.6875 7.453125 9.53125 L 13.382812 6.074219 C 13.835938 6.457031 14.40625 6.667969 15 6.667969 C 16.378906 6.667969 17.5 5.546875 17.5 4.167969 C 17.5 2.785156 16.378906 1.667969 15 1.667969 Z M 15 1.667969 "/>
</g>
</svg>
